<svg width="22" height="24" viewBox="0 0 22 24" fill="none" xmlns="http://www.w3.org/2000/svg">
<path d="M16.5554 15.4047L13.069 11.8742L16.5527 8.32628C19.0409 9.71486 20.9514 10.7758 21.3185 10.9704C22.5041 11.6157 21.9016 12.4465 21.3185 12.7605C21.1924 12.824 20.1402 13.4095 18.5793 14.278L18.578 14.2788C18.3267 14.4186 18.0623 14.5658 17.7865 14.7194C17.3973 14.9362 16.9853 15.1656 16.5554 15.4047Z" fill="#15CE73"/>
<path d="M15.9206 15.7577L12.5788 12.3734L1.41158 23.7465C1.54615 23.7055 1.68897 23.6433 1.84148 23.5585C1.95572 23.4952 2.23359 23.3415 2.64203 23.1156L2.66635 23.1021C4.96477 21.8309 11.2755 18.3404 15.9206 15.7577Z" fill="#15CE73"/>
<path d="M0.499208 23.6771C0.171546 23.4535 0 22.9858 0 22.3953V1.44533C0 0.792285 0.227391 0.390459 0.542315 0.184447L12.0871 11.8756L0.499208 23.6771Z" fill="#15CE73"/>
<path d="M1.39699 0.0541992L12.5773 11.3763L15.9064 7.98579C13.8421 6.84571 2.58686 0.630143 1.84128 0.228634C1.69964 0.143381 1.54876 0.0860213 1.39699 0.0541992Z" fill="#15CE73"/>
</svg>
