<svg width="22" height="13" viewBox="0 0 22 13" fill="none" xmlns="http://www.w3.org/2000/svg">
<path d="M16.6 4.48006L18.44 1.30006C18.6 0.99006 18.48 0.61006 18.18 0.45006C18.0391 0.376634 17.8759 0.358493 17.7224 0.399194C17.5688 0.439894 17.436 0.5365 17.35 0.67006L15.47 3.91006C14.0558 3.3112 12.5357 3.0026 11 3.0026C9.46426 3.0026 7.94417 3.3112 6.53 3.91006L4.65 0.67006C4.55909 0.530573 4.41763 0.431785 4.25536 0.394483C4.0931 0.357181 3.92269 0.384273 3.78 0.47006C3.5 0.65006 3.41 1.01006 3.56 1.30006L5.4 4.48006C3.87336 5.35217 2.5832 6.58445 1.64198 8.06948C0.700762 9.55452 0.137056 11.2472 0 13.0001H22C21.8629 11.2472 21.2992 9.55452 20.358 8.06948C19.4168 6.58445 18.1266 5.35217 16.6 4.48006ZM6 10.2501C5.66848 10.2501 5.35054 10.1184 5.11612 9.88394C4.8817 9.64952 4.75 9.33158 4.75 9.00006C4.75 8.66854 4.8817 8.3506 5.11612 8.11618C5.35054 7.88176 5.66848 7.75006 6 7.75006C6.33152 7.75006 6.64946 7.88176 6.88388 8.11618C7.1183 8.3506 7.25 8.66854 7.25 9.00006C7.25 9.33158 7.1183 9.64952 6.88388 9.88394C6.64946 10.1184 6.33152 10.2501 6 10.2501ZM16 10.2501C15.6685 10.2501 15.3505 10.1184 15.1161 9.88394C14.8817 9.64952 14.75 9.33158 14.75 9.00006C14.75 8.66854 14.8817 8.3506 15.1161 8.11618C15.3505 7.88176 15.6685 7.75006 16 7.75006C16.3315 7.75006 16.6495 7.88176 16.8839 8.11618C17.1183 8.3506 17.25 8.66854 17.25 9.00006C17.25 9.33158 17.1183 9.64952 16.8839 9.88394C16.6495 10.1184 16.3315 10.2501 16 10.2501Z" fill="#15CE73"/>
</svg>
